<svg width="38" height="39" viewBox="0 0 38 39" fill="none" xmlns="http://www.w3.org/2000/svg">
<path d="M17.208 25.0713H4.07129V28.0615H13.2764V31.7803H4.09863V35.1934H17.208V39H0V21.2959H17.208V25.0713ZM32.0029 21.2988C37.6617 21.2988 37.5555 27.0576 37.5547 27.0977C37.5547 31.5009 33.5253 32.356 33.4951 32.3623L37.8701 38.9941H33.0186L29.5322 33.4697L24.7148 34.5518V38.9941H20.6611V21.2988H32.0029ZM24.6875 30.5947L24.7207 30.623V30.626L32.1006 28.8057C32.6674 28.6648 33.1676 28.2708 33.3828 27.7109C33.3858 27.7078 33.3857 27.7043 33.3857 27.7012C33.4342 27.573 33.4672 27.4383 33.4854 27.3008C33.5277 26.9475 33.4613 26.5851 33.3008 26.2725C32.8885 25.4624 32.1157 25.3145 31.3154 25.3145C29.1053 25.3082 26.8977 25.3051 24.6875 25.2988V30.5947ZM17.208 3.77832H4.07129V6.76562H13.3311V10.4883H4.09863L4.07129 17.7041H0V0H17.208V3.77832ZM24.7607 13.8975H37.1729V17.7041H20.6641V0H24.7607V13.8975Z" fill="white"/>
</svg>
